<svg xmlns="http://www.w3.org/2000/svg" width="100" height="100" viewBox="0 0 100 100">
    <path fill="#a85238"
        d="M29 18.5L39.5 8L50 18.5L39.5 29ZM60.5 8L71 18.5L60.5 29L50 18.5ZM71 81.5L60.5 92L50 81.5L60.5 71ZM39.5 92L29 81.5L39.5 71L50 81.5ZM8 39.5L18.5 29L29 39.5L18.5 50ZM81.5 29L92 39.5L81.5 50L71 39.5ZM92 60.5L81.5 71L71 60.5L81.5 50ZM18.5 71L8 60.5L18.5 50L29 60.5Z" />
    <path fill="#e8e8e8"
        d="M8 18.5L18.5 8L29 18.5L18.5 29ZM81.5 8L92 18.5L81.5 29L71 18.5ZM92 81.5L81.5 92L71 81.5L81.5 71ZM18.5 92L8 81.5L18.5 71L29 81.5Z" />
    <path fill="#d18b75"
        d="M34 34L48 34L48 48L34 48ZM66 34L66 48L52 48L52 34ZM66 66L52 66L52 52L66 52ZM34 66L34 52L48 52L48 66Z" />
</svg>