<svg xmlns="http://www.w3.org/2000/svg" width="100" height="100" viewBox="0 0 100 100">
    <rect width="100%" height="100%" fill="#000000" opacity="1.00" />
    <path fill="#ffffff"
        d="M50 8L50 29L39.5 29ZM71 29L50 29L50 18.5ZM50 92L50 71L60.5 71ZM29 71L50 71L50 81.5ZM29 29L29 50L18.5 50ZM92 50L71 50L71 39.5ZM71 71L71 50L81.5 50ZM8 50L29 50L29 60.5ZM29 8L29 29L18.5 29ZM92 29L71 29L71 18.5ZM71 92L71 71L81.5 71ZM8 71L29 71L29 81.5ZM50 39.5L50 50L39.5 50ZM60.5 50L50 50L50 39.5ZM50 60.5L50 50L60.5 50ZM39.5 50L50 50L50 60.5Z" />
</svg>