<?xml version="1.0" encoding="UTF-8"?><svg xmlns="http://www.w3.org/2000/svg" xmlns:xlink="http://www.w3.org/1999/xlink" viewBox="0 0 175.08 188.32"><defs><style>.e{fill:none;}.f{fill:#fff;}.g{fill:#e4ecf9;}.h{fill:#bcc9dd;}.i{fill:#c4877a;}.j{fill:#a3675d;}.k{fill:#38231e;}.l{fill:#5bcaf4;}.m{clip-path:url(#d);}</style><clipPath id="d"><path class="e" d="M0,87.54C0,39.19,39.19,0,87.54,0s87.54,39.19,87.54,87.54-39.19,87.54-87.54,87.54S0,135.88,0,87.54Z"/></clipPath></defs><g id="a"/><g id="b"><g id="c"><g><path class="l" d="M0,87.54C0,39.19,39.19,0,87.54,0s87.54,39.19,87.54,87.54-39.19,87.54-87.54,87.54S0,135.88,0,87.54Z"/><g class="m"><g><g><path class="i" d="M61.56,123.59c3.23-.5,10.45-4.04,12.43-6.78,2.24-2.73,4.48-25.55,4.48-25.55,5.22,.99,14.92,1.49,19.9-.75,.5,6.96,0,13.43,1.49,20.14,.5,3.48,.99,5.97,3.73,7.96,2.49,1.99,6.47,2.98,9.2,4.48-3.48,5.47-6.47,11.69-11.19,15.92-4.23,3.98-9.2,7.46-12.68,11.69l-27.36-27.11Z"/><path class="j" d="M77.75,95.02c.19,5.57,4.41,16.32,9.98,18.43,6.14,2.11,10.75-15.74,10.75-19.96h0l-20.73,1.54Z"/></g><g><path class="j" d="M62.49,63.78c-4.03-1.58-9.65,.14-10.37,5.04-1.01,6.62,4.03,14.4,11.09,13.53,2.45-.29,4.17-1.58,6.33-2.59l-7.05-15.98Z"/><path class="j" d="M109.73,63.78c4.03-1.58,9.65,.14,10.37,5.04,1.01,6.62-4.03,14.4-11.09,13.53-2.45-.29-4.18-1.58-6.33-2.59l7.05-15.98Z"/></g><g><g><path class="i" d="M108.85,45.3c-4.8-.77-3.07-9.21-3.65-13.05-5.37,2.11-33.4,2.69-38.2,.38,0,3.45,.58,7.87-.96,10.94-.77,1.73-3.45,3.65-3.45,3.65,0,0,.38,3.65,.58,4.99,.49,3.42,1.38,9.45-.94,12.61,1.77,9.23,3.97,17.92,4.45,20.41,1.15,5.38,2.69,6.14,6.72,9.21,4.21,3.21,10.94,7.49,15.74,7.87,0,0,12.86-7.87,14.78-10.18,2.31-2.47,6.03-18.94,7.52-28.66-4.28-4.78-2.27-10.77-2.58-18.18Z"/><path class="k" d="M113.54,24.35c6.93-5.85-3.68-10.4-7.15-4.77,2.38-3.47-1.52-5.42-4.33-4.77,2.6-5.63-8.45-8.23-8.88-.22-.65-2.6-4.12-2.82-5.42-1.08,.87-4.98-5.85-4.98-6.93-1.3,.43-5.63-9.32-3.03-6.72,2.6-1.73-1.73-4.98-.43-5.63,1.95-1.95-4.33-8.02,.22-5.2,4.33-4.77,0-7.8,4.98-3.25,8.02-5.85,1.52-2.3,6.5-1.43,11.7,.13,1.01,.25,1.96,.33,2.91,1.61,7.54,1.8,13.32,3.29,21.1,2.31-3.16,1.42-9.19,.94-12.61-.19-1.35-.58-4.99-.58-4.99,0,0,2.69-1.92,3.45-3.65,1.54-3.07,.96-7.49,.96-10.94,4.8,2.3,32.83,1.73,38.2-.38,.58,3.84-1.15,12.29,3.65,13.05,.32,7.42-1.7,13.4,2.58,18.18,.25-1.6,.44-3.03,.54-4.17,.52-5.08,1.42-11.83,.95-18.06,0-2.72-.19-5,.41-7.38,.87-2.82,3.47-3.03,4.12-5.42,.65-2.6-1.3-4.98-3.9-4.12Z"/></g><g><path class="f" d="M79.62,85.95c1.44,2.59,2.88,4.61,6.19,5.04,4.32,.72,8.06-1.29,9.36-5.62l-15.55,.58Z"/><g><path d="M75.15,62.49c0,2.14-.87,3.89-1.94,3.89s-1.94-1.74-1.94-3.89,.87-3.89,1.94-3.89,1.94,1.74,1.94,3.89Z"/><path d="M101.64,62.49c0,2.14-.87,3.89-1.94,3.89s-1.94-1.74-1.94-3.89,.87-3.89,1.94-3.89,1.94,1.74,1.94,3.89Z"/></g><path class="j" d="M86.82,59.03c.49,1.43,.51,3.04,.13,4.56-.4,1.52-1.17,2.9-1.95,4.18-.77,1.3-1.59,2.53-2.13,3.85-.27,.64-.53,1.35-.66,1.97-.14,.7-.15,1.3,0,1.91,.28,1.19,1.34,2.07,2.62,2.49,.64,.22,1.32,.35,2.02,.39,.36,.02,.68,.02,1.05,0,.31-.02,.66-.07,.97-.16,1.28-.33,2.27-1.4,2.74-2.75,.5-1.33,.63-2.89,.53-4.35,.18,.34,.21,.74,.26,1.11,.03,.38,.08,.74,.09,1.13,.04,.77,0,1.55-.18,2.32-.18,.77-.51,1.53-1.03,2.19-.52,.66-1.26,1.16-2.05,1.45-.4,.15-.79,.24-1.23,.3-.38,.05-.81,.07-1.2,.06-.8-.01-1.62-.12-2.41-.36-.79-.24-1.57-.63-2.23-1.21-.66-.58-1.18-1.38-1.4-2.25-.43-1.79,.17-3.43,.81-4.84,.69-1.43,1.57-2.69,2.45-3.9,.86-1.22,1.7-2.42,2.23-3.77,.57-1.34,.72-2.83,.56-4.34Z"/><g><path class="k" d="M71.89,48.86c-1.25,.77-3.46,.67-2.11-1.54,.67-1.15,2.98-2.21,4.32-2.11,1.25,.1,2.11,1.63,.67,2.21l-2.88,1.44Z"/><path class="k" d="M99.73,46.36c-2.5-1.63-.48-3.26,1.82-2.3,1.44,.48,2.69,1.44,3.17,2.98,.48,1.44-.19,2.49-1.82,1.54l-3.17-2.21Z"/></g></g></g><g><path class="i" d="M36.28,165.86c4.89-.86,13.53,.58,19.29,.29,.86,6.05,.57,19,.57,19-5.76,1.15-14.4,.58-20.44,.29-.35-.13,.58-19.58,.58-19.58Z"/><path class="i" d="M140.38,165.86c-4.89-.86-13.53,.58-19.29,.29-.86,6.05-.58,19-.58,19,5.76,1.15,14.4,.58,20.45,.29,.35-.13-.58-19.58-.58-19.58Z"/><g><path class="h" d="M115.28,122.59c-2.46-1.16-4.13-1.93-4.13-1.93-.08,.05-.2,.1-.32,.15-16.59,19.77-37.33,6.26-45.05-.02-.1-.04-.21-.09-.28-.13,0,0-1.93,.89-4.68,2.19,5.43,4.97,33.48,28.23,54.45-.26Z"/><path class="h" d="M54.57,164.85c-7.54,1.71-17.69-.01-21.57-.8-.37,2.41-.6,3.97-.6,3.97,.43,.43,9.63,1.73,22.43,1.01h0l-.26-4.18Z"/><g><path class="g" d="M122.38,164.85c7.36,1.67,17.22,.06,21.29-.75-1.23-8.03-4.02-25.8-5.02-27.9-1.73-3.6-4.74-4.6-8.21-6.33-4.37-2.19-10.93-5.29-15.16-7.28-20.96,28.49-49.02,5.23-54.45,.26-4.23,1.99-10.43,4.93-14.62,7.02-3.47,1.73-6.48,2.73-8.21,6.33-1,2.11-3.78,19.8-5.01,27.85,3.88,.79,14.04,2.52,21.57,.8l.26,4.17h0s.02,0,.04,0c.29,6.34,.29,19.29,.29,19.29-.19-.28,16.49-.32,27.93-.31v.02s2.08,0,5.25-.01c3.17,0,5.26,.01,5.26,.01v-.02c11.45,0,28.12,.03,27.93,.31,0,0,0-11.5,.24-18.13l-1.34,2.9,1.34-2.9c.01-.41,.03-.8,.05-1.16,.16,0,.32,.02,.48,.02l.04-.08,.06-4.12Z"/><path class="h" d="M122.38,164.85l-.06,4.12-.04,.08c12.56,.66,21.55-.61,21.98-1.03,0,0-.23-1.53-.59-3.91-4.07,.81-13.93,2.42-21.29,.75Z"/></g><g><path class="h" d="M55.05,176.77c-.25-2.21-.44-4.42-.61-6.62-.2-2.21-.33-4.42-.51-6.61-.23-2.19-.37-4.43-.39-6.65,0-2.22,.07-4.45,.3-6.66,.23,2.21,.35,4.43,.54,6.63,.14,2.21,.35,4.38,.53,6.61,.16,2.22,.23,4.44,.24,6.66,.03,2.22,0,4.44-.1,6.66Z"/><path class="h" d="M51.74,158.37c-1.49-1.27-2.28-3.25-2.45-5.2-.16-1.95,.28-4.02,1.49-5.55-.48,1.86-.65,3.66-.49,5.47,.15,1.81,.62,3.55,1.46,5.28Z"/></g></g><g><path class="h" d="M121.59,176.77c-.11-2.22-.13-4.44-.1-6.66,0-2.22,.08-4.43,.24-6.66,.18-2.22,.39-4.4,.53-6.61,.18-2.2,.3-4.41,.54-6.63,.23,2.22,.29,4.44,.3,6.66-.02,2.22-.16,4.46-.39,6.65-.18,2.2-.31,4.41-.51,6.61-.17,2.21-.36,4.42-.61,6.62Z"/><path class="h" d="M124.91,158.37c.83-1.73,1.31-3.47,1.45-5.28,.16-1.81-.02-3.61-.5-5.47,1.21,1.53,1.65,3.6,1.49,5.55-.17,1.95-.96,3.93-2.45,5.2Z"/></g></g></g></g></g></g></g></svg>