<?xml version="1.0" encoding="UTF-8"?><svg xmlns="http://www.w3.org/2000/svg" xmlns:xlink="http://www.w3.org/1999/xlink" viewBox="0 0 175.08 191.78"><defs><style>.e{fill:none;}.f{fill:#eef5ff;}.g{fill:#fff;}.h{fill:#e5bc85;}.i{fill:#9d9e9e;}.j{fill:#bacadd;}.k{fill:#babebf;}.l{fill:#cecece;}.m{fill:#c69b67;}.n{fill:#35231e;}.o{fill:#5bcaf4;}.p{fill:#7a7f7f;}.q{clip-path:url(#d);}</style><clipPath id="d"><path class="e" d="M0,87.54C0,39.19,39.19,0,87.54,0s87.54,39.19,87.54,87.54-39.19,87.54-87.54,87.54S0,135.88,0,87.54Z"/></clipPath></defs><g id="a"/><g id="b"><g id="c"><g><path class="o" d="M0,87.54C0,39.19,39.19,0,87.54,0s87.54,39.19,87.54,87.54-39.19,87.54-87.54,87.54S0,135.88,0,87.54Z"/><g class="q"><g><g><path class="p" d="M55.06,126.63c0-1.3,0-3.26,1.63-4.56,3.59-2.93,16.93-3.48,21.5-3.58,33.25-.73,37.18,.12,42.03,8.8-11.73-1.95-21.83-.65-32.25-1.63-10.75-.98-21.17,0-31.92,1.3l-.98-.33Z"/><path class="h" d="M61.56,127.04c3.23-.5,10.45-4.04,12.43-6.78,2.24-2.73,4.48-25.55,4.48-25.55,5.22,1,14.92,1.49,19.89-.75,.5,6.96,0,13.43,1.49,20.15,.5,3.48,.99,5.97,3.73,7.96,2.49,1.99,6.47,2.98,9.2,4.48-.47,6.75-6.47,11.69-11.19,15.92-4.23,3.98-9.2,7.46-12.68,11.69l-27.36-27.11Z"/><path class="m" d="M77.75,98.48c.19,5.57,4.41,16.32,9.98,18.43,6.14,2.11,10.75-15.74,10.75-19.96h0l-20.73,1.54Z"/></g><g><path class="m" d="M62.49,67.24c-4.03-1.58-9.65,.14-10.37,5.04-1.01,6.62,4.03,14.4,11.09,13.54,2.45-.29,4.17-1.58,6.33-2.59l-7.05-15.98Z"/><path class="m" d="M109.73,67.24c4.03-1.58,9.65,.14,10.37,5.04,1.01,6.62-4.03,14.4-11.09,13.54-2.45-.29-4.17-1.58-6.33-2.59l7.05-15.98Z"/></g><g><path class="h" d="M89.13,105.78c-4.8-.38-11.53-4.66-15.74-7.87-4.03-3.07-5.57-3.84-6.72-9.21-.96-4.99-8.83-34.94-6.33-44.15,1.34-4.8,2.3-8.26,4.99-12.09,3.46-4.8,8.83-7.3,14.4-8.26,9.79-1.73,20.54,.19,27.84,7.1,7.68,6.91,5.37,22.08,4.41,31.48-.77,8.06-5.38,29.95-8.06,32.83-1.92,2.3-14.78,10.18-14.78,10.18Z"/><path class="n" d="M58.3,31.84c-1.27,5.22-11.4,7.6-6.17,14.57-2.85,2.38-5.07,7.6-1.11,10.29-3.33,4.12,.32,5.7,3.64,7.44,2.69,1.27,5.42,3.63,7.8,5.22,1.27-2.85,.75-8.54,.75-11.71-.16-2.85,0-3.17,1.58-5.23,1.27-1.74,2.54-4.12,1.27-6.33,3.48,.79,7.76-4.43,4.91-7.44,1.74-.63,5.54-2.53,7.44-1.58,.63,.32,1.11,1.74,1.9,2.22,.95,.79,2.54,1.11,3.8,1.27-.32-1.11-.79-2.38-1.11-3.48,1.58,2.22,4.59,3.17,7.29,3.17-.79-1.42-1.9-2.69-2.69-4.12,2.69,1.74,6.65-.63,9.34,1.11,1.74,1.11,1.11,6.34,3.8,3.48-.16,2.22,2.06,2.06,3.64,1.43-.32,2.69,3.01,2.53,4.91,2.69,.32,5.54,.47,11.09,.47,16.63,0,3.8,.99,7.83,1.36,7.55,1.48-1.11,5.17-4.64,8.3-5.97,1.86-.79,1.9-3.48,1.74-5.38-.16-1.58-1.42-3.33-1.27-4.43,.32-1.9,2.37-3.17,2.22-5.38-.16-2.06-2.22-2.69-2.54-4.43-.16-1.11,1.11-3.33,.95-4.75-.16-1.9-.95-4.28-2.22-5.54-.79-.79-1.74-1.27-3.01-1.42,1.43-.32,2.06-1.74,1.9-3.01-.95,1.58-3.8,.95-4.75-.63-1.27-2.22,0-4.12-2.85-6.02-2.38-1.74-5.54-1.27-7.76-2.22-2.06-.79-5.06-4.43-7.76-2.22-3.01-4.28-9.82-3.64-13.46-.63-1.43,1.11-1.43,2.06-3.33,2.06-1.43,0-2.85-1.11-4.28-1.11,0,.32-.16,.63-.16,.95-2.06-.47-3.48-1.11-5.38,.16-.47,.32-.47,1.27-.95,1.58-.79,.32-1.9,0-2.85,.16-4.91,.47-6.33,3.48-6.33,7.92l.95,3.17Z"/><path class="g" d="M80.2,90.12c1.21,1.69,2.43,3.01,5.38,3.44,3.85,.65,7.27-.43,8.58-3.06l-13.96-.38Z"/><g><path class="n" d="M69.72,54.02c-.6-2.18,1.92-3.95,3.86-3.97,1.94-.1,4.15,.84,4.72,2.85-1.03-.02-1.77,.02-2.51,.05-2.15,.19-4.05-.14-6.07,1.07h0Z"/><path class="n" d="M103.64,54.02c-2.02-1.21-3.93-.88-6.07-1.07-.74-.03-1.48-.07-2.51-.05,.58-2.01,2.78-2.95,4.72-2.85,1.94,.02,4.46,1.79,3.86,3.97h0Z"/></g><g><g><path d="M75.15,65.94c0,2.15-.87,3.89-1.95,3.89s-1.94-1.74-1.94-3.89,.87-3.89,1.94-3.89,1.95,1.74,1.95,3.89Z"/><path d="M101.64,65.94c0,2.15-.87,3.89-1.94,3.89s-1.94-1.74-1.94-3.89,.87-3.89,1.94-3.89,1.94,1.74,1.94,3.89Z"/></g><path class="m" d="M88.95,59.93c-2.14,2.27-.98,5.63,.51,7.93,1.62,2.52,4.55,3.98,5.78,6.93,1.9,3.52-1.92,7.17-5.5,6.29-3.26-.94-4-4.66-5.49-7.23,1.82,1.98,2.96,5.47,5.74,6.09,2.45,.4,5.34-2.03,3.87-4.55-.97-2.52-3.86-4.07-5.4-6.92-1.45-2.53-2.24-6.61,.49-8.53h0Z"/></g></g><g><path class="h" d="M36.28,169.32c4.89-.87,13.53,.58,19.29,.29,.86,6.05,.58,19.01,.58,19.01-5.76,1.15-14.4,.57-20.45,.29-.35-.13,.58-19.58,.58-19.58Z"/><path class="h" d="M140.38,169.32c-4.89-.87-13.53,.58-19.29,.29-.86,6.05-.57,19.01-.57,19.01,5.76,1.15,14.4,.57,20.44,.29,.35-.13-.58-19.58-.58-19.58Z"/><g><g><path class="f" d="M112.15,130.11c-.22-.1-1.92,1.27-2.15,1.42-1.06,.71-2.11,1.42-3.17,2.14-5.99,4.07-14.91,4.4-21.94,3.96-2.26-.14-4.55-.4-6.79-.78-2.63-.45-5.84-1.51-8.03-3-1.1-.75-2.2-1.5-3.3-2.24-.24-.16-2.03-1.61-2.27-1.5,0,0-1.47,.68-3.67,1.72l.09,59.72c5.85-.08,15.01-.09,22.14-.06,0,0,2.08,0,5.26-.01,3.17,0,5.26,.01,5.25,0,6.08,0,13.63,0,19.35,.05l1.91-60.15c-1.65-.77-2.69-1.26-2.69-1.26Z"/><path class="j" d="M59.33,130.85c11.06,11.15,28.02,12.88,42.52,8.46,4.81-1.44,9.61-3.77,12.6-7.96-2.66,4.48-7.56,7.09-12.37,8.7-14.57,4.87-32.32,2.95-42.75-9.2h0Z"/><path class="k" d="M46.22,133.32c-3.47,1.73-6.48,2.73-8.21,6.33-1.29,2.74-5.62,31.82-5.62,31.82,.43,.43,9.65,1.73,22.46,1.01,.29,6.34,.29,19.29,.29,19.29-.07-.11,6.83-.36,10.37-.41l-2.54-65.56c-4.2,1.97-12.22,5.25-16.76,7.51Z"/><path class="k" d="M138.65,139.66c-1.73-3.6-4.74-4.6-8.21-6.33-4.91-2.45-14.24-5.81-18.28-7.7l-.38,65.93c5.05,.04,9.82,.09,9.73,.22,0,0,0-12.96,.29-19.29,12.81,.72,22.03-.57,22.46-1.01,0,0-4.32-29.08-5.62-31.82Z"/></g><g/><g><path class="i" d="M55.05,180.22c-.72-8.83-2.04-17.69-1.21-26.55,.7,8.84,1.67,17.67,1.21,26.55h0Z"/><path class="i" d="M51.74,161.83c-2.92-2.58-3.31-7.68-.96-10.75-.94,3.7-.7,7.29,.96,10.75h0Z"/></g></g><g><path class="i" d="M121.59,180.22c-.46-8.88,.5-17.71,1.21-26.55,.84,8.86-.49,17.72-1.21,26.55h0Z"/><path class="i" d="M124.91,161.83c1.66-3.45,1.9-7.05,.96-10.75,2.35,3.07,1.96,8.17-.96,10.75h0Z"/></g></g><g><g><path class="l" d="M55.1,126.63c0-1.3,0-3.26,1.63-4.56,1.62-1.32,5.22-2.18,9.11-2.72,0,0-1.79,34.49-1.79,34.52,.18-3.47-2.94-8.97-4.02-12.23-1.54-4.67-4.92-10.07-4.93-15.01Z"/><path class="g" d="M59.64,169.28h-.01c-.41,0-.74-.34-.74-.76,.06-4.21,.24-8.92,.42-13.47,.21-5.33,.43-10.85,.45-15.79,0-.41,.34-.74,.75-.74h0c.41,0,.75,.34,.74,.75-.03,4.97-.24,10.5-.45,15.84-.18,4.54-.36,9.24-.42,13.44,0,.41-.34,.74-.75,.74Z"/></g><g><path class="l" d="M121,126.63c0-1.3,0-3.26-1.63-4.56-1.62-1.32-5.22-2.18-9.11-2.72,0,0,1.79,34.49,1.79,34.52-.18-3.47,2.94-8.97,4.02-12.23,1.54-4.67,4.92-10.07,4.93-15.01Z"/><path class="g" d="M116.46,169.28c-.41,0-.74-.33-.75-.74-.06-4.2-.24-8.89-.42-13.44-.21-5.34-.43-10.87-.45-15.84,0-.41,.33-.75,.74-.75h0c.41,0,.75,.33,.75,.74,.03,4.94,.24,10.46,.45,15.79,.18,4.55,.36,9.26,.42,13.47,0,.41-.32,.75-.74,.76h-.01Z"/></g></g></g></g></g></g></g></svg>