<?xml version="1.0" encoding="UTF-8"?><svg xmlns="http://www.w3.org/2000/svg" xmlns:xlink="http://www.w3.org/1999/xlink" viewBox="0 0 175.07 191.78"><defs><style>.e{fill:none;}.f{fill:#faab47;}.g{fill:#eab19d;}.h{fill:#fff;}.i{fill:#fcd0be;}.j{fill:#7f5145;}.k{fill:#af7a4a;}.l{fill:#cc9258;}.m{fill:#c69383;}.n{fill:#2a356b;}.o{fill:#5b362a;}.p{fill:#ffa4bc;mix-blend-mode:multiply;opacity:.2;}.q{clip-path:url(#d);}.r{isolation:isolate;}</style><clipPath id="d"><circle class="e" cx="87.54" cy="87.54" r="87.54" transform="translate(-13.42 159.18) rotate(-80.36)"/></clipPath></defs><g class="r"><g id="a"/><g id="b"><g id="c"><g><circle class="f" cx="87.54" cy="87.54" r="87.54" transform="translate(-13.42 159.18) rotate(-80.36)"/><g class="q"><g><g><g><path class="j" d="M133.39,96.15c-2.32-10.26-5.03-20.1-6.61-29.73-.35-5.02-.68-10.17-1.35-15.1l-.03,.87c-.5-9.06-3.71-19.94-11.38-25.29-7.15-4.99-13.98-7.65-22.64-7.78-5.14-.08-10.3,.03-15.36,.9-6.84,1.19-15,4.45-19.59,9.91-5.06,6.02-6.16,15.05-6.63,22.74-.54,9.03-.3,18.59-3.66,27.75-1.37,3.73-3.31,7.31-4.42,11.23-1.37,4.85-1.37,10.13,.03,14.93,.15-2.04,1.07-4.04,2.48-5.45-1.18,1.16-.05,7.36,.21,8.82,.56,3.1,1.63,6.09,3.12,8.8,2.47,4.47,6.79,9.86,11.01,12.5,11.61,7.27,25.85,6.27,38.79,5.31,5.64-.42,11.41-.88,16.46-3.46,8.78-4.49,13.84-14.75,15.35-25.04,.1-.69,.17-1.39,.24-2.08,.03-.23,.06-.45,.08-.68,.01-.12,.03-.24,.04-.37,.05-.57,.07-1.14,.1-1.7,1.08,2.71,2.17,5.45,3.28,8.21,2.58-4.29,1.62-10.15,.45-15.29Z"/><path class="o" d="M65.58,82.73c-2.87,5.5-9,9.88-8.12,17,1.62-1.88,3.12-4.25,4.37-6.38-.37,6.62-1.8,16.99-.3,23.49,1.5,6.88,5.68,11.76,12.05,15.51,13.5,8,34.66,3.61,38.78-13.76,1.62-7,.22-12.36-.53-19.36,1.37,2,2.25,4.38,3.12,6.62,1.87-5,.87-12-1.25-16.75-2.75-6.75-9.25-8.62-16.25-8.88h-1.75l-30.12,2.5Z"/><path class="i" d="M62.42,127.04c3.23-.5,10.45-4.04,12.44-6.78,2.24-2.73,4.48-25.55,4.48-25.55,5.22,1,14.92,1.49,19.9-.75,.5,6.96,0,13.43,1.49,20.15,.5,3.48,.99,5.97,3.73,7.96,2.49,1.99,6.46,2.98,9.2,4.48-3.48,5.47-6.46,11.69-11.19,15.92-4.23,3.98-9.2,7.46-12.68,11.69l-27.36-27.11Z"/><rect class="h" x="68.58" y="131.23" width="42.5" height="26.5" rx="3" ry="3"/><path class="g" d="M77.27,97.63c.19,5.57,5.76,17.17,11.33,19.28,6.14,2.11,11.91-15.74,11.91-19.96h-1.17l-22.07,.68Z"/></g><g><path class="i" d="M37.43,157.22c4.89-.86,13.53,12.67,19.29,12.38,.86,6.05,.57,19,.57,19-5.76,1.15-14.4,.58-20.44,.29-.35-.13,.58-31.68,.58-31.68Z"/><path class="i" d="M141.53,156.65c-4.89-.86-13.53,13.25-19.29,12.96-.86,6.05-.58,19-.58,19,5.76,1.15,14.4,.58,20.45,.29,.35-.13-.58-32.25-.58-32.25Z"/></g><g><path class="k" d="M116.08,125.88c-2.27-1.06-3.78-1.77-3.78-1.77-3.64,2.35-22.82,27.93-22.82,27.93-.5,.86-19.18-25.58-22.82-27.93,0,0-1.39,.65-3.5,1.63l26.4,34.18,26.52-34.04Z"/><path class="l" d="M145.42,158.95s-4.32-16.56-5.62-19.29c-1.73-3.6-4.74-4.6-8.21-6.33-4.49-2.25-11.3-5.47-15.51-7.44l-26.52,34.04-26.4-34.18c-4.18,1.96-11.2,5.28-15.8,7.58-3.47,1.73-6.48,2.73-8.21,6.33-1.29,2.74-5.62,18.14-5.62,18.14,.37,.37,7.21,9.25,17.24,11.31-.53,1.55-.87,3.12-.97,4.67-.43,5.62,1.58,14.54,6.48,18,0,0,16.49-.32,27.93-.31v.02s2.08,0,5.25-.01c3.17,0,5.26,.01,5.26,.01v-.02c11.45,0,27.87,.18,27.93,.31,4.9-3.46,7.85-12.38,7.42-18-.1-1.59-.46-3.2-1.01-4.79,9.54-2.12,15.97-9.68,16.34-10.04Z"/></g><g><g><path class="g" d="M63.64,69.54c-4.03-1.58-9.65,.14-10.37,5.04-1.01,6.62,4.03,14.4,11.09,13.53,2.45-.29,4.17-1.58,6.33-2.59l-7.05-15.98Z"/><path class="g" d="M110.88,69.54c4.03-1.58,9.65,.14,10.37,5.04,1.01,6.62-4.03,14.4-11.09,13.53-2.45-.29-4.18-1.58-6.33-2.59l7.05-15.98Z"/></g><g><path class="o" d="M82.08,40.54c1.73,.29,3.46,.72,5.04,1.3,2.3,.86,2.16,.58,4.32-.43,4.03-2.02,9.21-3.02,13.68-3.02,2.55,0,4.9,.16,7.23,.64-.84-2.09-2-3.95-3.64-5.42-7.29-6.91-18.04-8.83-27.83-7.1-5.57,.96-10.94,3.46-14.4,8.25-1.4,1.99-2.32,3.88-3.08,5.91,5.69-1.55,13.36-1,18.69-.12Z"/><path class="i" d="M105.12,38.38c-4.46,0-9.65,1.01-13.68,3.02-2.16,1.01-2.02,1.3-4.32,.43-1.58-.58-3.31-1.01-5.04-1.3-5.33-.89-13-1.44-18.69,.12-.71,1.88-1.27,3.88-1.91,6.19-2.5,9.21,5.37,39.16,6.33,44.15,1.15,5.38,2.69,6.14,6.72,9.21,4.21,3.21,10.94,7.49,15.74,7.87,0,0,12.86-7.87,14.78-10.18,2.69-2.88,7.29-24.76,8.06-32.83,.75-7.4,2.32-18.35-.78-26.06-2.33-.48-4.68-.64-7.23-.64Z"/></g><path class="p" d="M76.88,79.84c0,1.07-2.06,1.94-4.61,1.94s-4.61-.87-4.61-1.94,2.06-1.94,4.61-1.94,4.61,.87,4.61,1.94Z"/><path class="p" d="M108.7,79.84c0,1.07-2.06,1.94-4.61,1.94s-4.61-.87-4.61-1.94,2.06-1.94,4.61-1.94,4.61,.87,4.61,1.94Z"/><g><g><path d="M77.61,69.4c0,2.15-.87,3.89-1.95,3.89s-1.94-1.74-1.94-3.89,.87-3.89,1.94-3.89,1.95,1.74,1.95,3.89Z"/><path d="M102.79,69.4c0,2.15-.87,3.89-1.94,3.89s-1.94-1.74-1.94-3.89,.87-3.89,1.94-3.89,1.94,1.74,1.94,3.89Z"/></g><path class="m" d="M89.49,69.91c-.78,3.52,.33,5.74,3.08,7.98,2.71,2.47,1.08,5.62-2.28,6.15-.84,.13-1.78,.06-2.46-.43,.81,.16,1.57,0,2.27-.28,1.17-.49,2.56-1.44,2.45-2.8-.33-1.29-1.88-2.22-2.76-3.36-1.77-2-1.74-5.21-.3-7.26h0Z"/><path class="m" d="M80.77,90.56c1.09,1.33,2.14,2.68,3.49,3.46,4.39,2.26,10,.63,12.06-4.03-.2,1.7-1,3.44-2.42,4.64-2.79,2.41-7.34,2.47-10.3,.36-1.49-1.17-2.28-2.81-2.83-4.42h0Z"/><g><path class="n" d="M71.92,59.63c-1.1-3.17,2.12-7.18,5.53-6.3-3.14,.79-4.95,3.2-5.53,6.3h0Z"/><path class="n" d="M99.11,51.89c4.12-1.13,7.11,3.96,6.08,7.52-.18-.91-.4-1.77-.69-2.6-.84-2.48-2.66-4.57-5.38-4.92h0Z"/></g></g></g><g><path class="k" d="M49.81,177.07c-.76-7.84,1.91-16.09,6.96-22.12-3.87,6.86-6.29,14.26-6.96,22.12h0Z"/><path class="k" d="M50.85,161.34c-.71-3.54-.32-7.67,2.13-10.49-1.19,3.5-1.43,6.88-2.13,10.49h0Z"/><path class="k" d="M130.03,176.54c-.77-7.14-3.53-13.68-7.75-19.45,5.3,4.79,8.43,12.31,7.75,19.45h0Z"/><path class="k" d="M127.08,160.29c-.3-3.41-.46-6.6-1.91-9.75,2.67,2.31,3.04,6.57,1.91,9.75h0Z"/></g></g><path class="j" d="M89.14,42.41c.14-4.03-1.87-9.79-4.89-12.53-7.05-6.48-11.95,4.9-13.68,10.08-2.3,7.49-1.29,16.41-1.29,24.19,0,18.03-8.11,25.61-11.13,27.05-3.6,1.73-5.14-.12-6.72-3.29-1.73-3.74-2.02-9.65-1.58-13.68,.58-4.61,1.29-9.65,2.16-14.25,.86-4.75,1.73-9.65,2.73-14.25,1.01-4.75,4.03-9.07,6.34-13.39,3.89-6.77,11.66-14.11,20.3-12.24,3.31,.72,7.2,4.46,8.21,7.49l-.43,14.83Z"/><path class="j" d="M88.99,42.41c1.58-4.32,3.89-13.25,10.51-10.51,6.05,2.45,6.33,15.41,7.34,20.73,1.58,8.35,1.73,16.7,3.02,25.2,.58,4.03,1.58,9.07,4.9,11.95,2.59,2.3,7.77,3.02,10.37,.43,2.88-2.59,2.16-8.35,1.58-11.81-.86-4.75-3.17-8.64-4.89-13.1-1.58-4.03-3.02-8.21-3.74-12.53-.58-4.18-.14-8.35-.86-12.53-1.73-8.49-8.49-15.69-17.28-16.27-6.05-.43-12.58-2.16-12.44,5.04l1.5,13.39Z"/></g></g></g></g></g></g></svg>